<svg width="42" height="42" viewBox="0 0 42 42" fill="none" xmlns="http://www.w3.org/2000/svg">
<path d="M21.4547 0.84375C14.3063 0.825 8.01566 4.52344 4.42035 10.1109C4.26098 10.3594 4.4391 10.6875 4.73441 10.6875H8.02973C8.25473 10.6875 8.46566 10.5891 8.60629 10.4156C8.93441 10.0172 9.28598 9.63281 9.65629 9.26719C11.1844 7.74375 12.961 6.54375 14.9391 5.70938C16.9829 4.84688 19.1579 4.40625 21.4032 4.40625C23.6485 4.40625 25.8235 4.84219 27.8672 5.70938C29.8454 6.54375 31.6219 7.74375 33.15 9.26719C34.6782 10.7906 35.8735 12.5672 36.7125 14.5406C37.5797 16.5844 38.0157 18.7547 38.0157 21C38.0157 23.2453 37.575 25.4156 36.7125 27.4594C35.8782 29.4328 34.6782 31.2094 33.15 32.7328C31.6219 34.2563 29.8454 35.4563 27.8672 36.2906C25.8219 37.1545 23.6235 37.5977 21.4032 37.5938C19.1579 37.5938 16.9829 37.1531 14.9391 36.2906C12.9649 35.4571 11.1709 34.2489 9.65629 32.7328C9.28598 32.3625 8.9391 31.9781 8.60629 31.5844C8.46566 31.4109 8.25004 31.3125 8.02973 31.3125H4.73441C4.4391 31.3125 4.25629 31.6406 4.42035 31.8891C8.01098 37.4625 14.2735 41.1563 21.4032 41.1563C32.475 41.1563 41.4657 32.2453 41.5782 21.2063C41.6907 9.98906 32.686 0.871875 21.4547 0.84375ZM15.5166 26.25V22.6875H0.797852C0.591602 22.6875 0.422852 22.5188 0.422852 22.3125V19.6875C0.422852 19.4813 0.591602 19.3125 0.797852 19.3125H15.5166V15.75C15.5166 15.4359 15.8822 15.2578 16.126 15.4547L22.7775 20.7047C22.8224 20.7398 22.8586 20.7846 22.8835 20.8358C22.9085 20.8869 22.9214 20.9431 22.9214 21C22.9214 21.0569 22.9085 21.1131 22.8835 21.1642C22.8586 21.2154 22.8224 21.2602 22.7775 21.2953L16.126 26.5453C15.8822 26.7375 15.5166 26.5641 15.5166 26.25Z" fill="white"/>
</svg>
