<svg width="22" height="13" viewBox="0 0 22 13" fill="none" xmlns="http://www.w3.org/2000/svg">
<path d="M20.3713 0.986222L11.0001 10.1212L1.6288 0.986222C1.46137 0.82268 1.2366 0.731123 1.00255 0.731123C0.7685 0.731123 0.543735 0.82268 0.376301 0.986222C0.29523 1.06566 0.230824 1.16047 0.186856 1.2651C0.142887 1.36974 0.120239 1.4821 0.120239 1.5956C0.120239 1.7091 0.142887 1.82145 0.186856 1.92609C0.230824 2.03073 0.29523 2.12554 0.376301 2.20497L10.3457 11.925C10.5208 12.0956 10.7556 12.1911 11.0001 12.1911C11.2445 12.1911 11.4794 12.0956 11.6544 11.925L21.6238 2.20685C21.7055 2.12735 21.7703 2.03231 21.8147 1.92733C21.859 1.82234 21.8818 1.70955 21.8818 1.5956C21.8818 1.48165 21.859 1.36885 21.8147 1.26387C21.7703 1.15888 21.7055 1.06384 21.6238 0.984347C21.4564 0.820805 21.2316 0.729248 20.9976 0.729248C20.7635 0.729248 20.5387 0.820805 20.3713 0.984347V0.986222Z" fill="black"/>
</svg>
