<svg xmlns="http://www.w3.org/2000/svg" fill="none" viewBox="-4 -4 178 93"><mask id="path-1-inside-1_117_5" fill="white"><rect width="170" height="85" rx="2"></rect></mask><rect width="170" height="85" rx="2" stroke="white" stroke-width="8" mask="url(#path-1-inside-1_117_5)"></rect><path d="M24.4453 43.4688C24.4453 37.75 25.8359 33.25 28.6172 29.9688C31.3984 26.6875 35.0078 25.0469 39.4453 25.0469C42.1953 25.0469 44.5234 25.8125 46.4297 27.3438C48.3672 28.8438 49.8203 30.6406 50.7891 32.7344L47.6016 33.8594C45.5078 30.1094 42.7578 28.2344 39.3516 28.2344C35.9766 28.2344 33.2891 29.625 31.2891 32.4062C29.2891 35.1562 28.2891 38.8438 28.2891 43.4688C28.2891 48.1562 29.3047 51.8594 31.3359 54.5781C33.3672 57.2656 36.0391 58.6094 39.3516 58.6094C41.4453 58.6094 43.2734 58.0312 44.8359 56.875C46.3984 55.6875 47.5703 54.2344 48.3516 52.5156L51.7266 53.5938C50.6641 55.875 49.1172 57.8281 47.0859 59.4531C45.0547 61.0469 42.5078 61.8438 39.4453 61.8438C35.0391 61.8438 31.4297 60.2188 28.6172 56.9688C25.8359 53.6875 24.4453 49.1875 24.4453 43.4688ZM55.4766 43.4688C55.4766 37.9688 56.8047 33.5312 59.4609 30.1562C62.1172 26.75 65.6641 25.0469 70.1016 25.0469C74.5703 25.0469 78.1016 26.7344 80.6953 30.1094C83.3203 33.4844 84.6328 37.9531 84.6328 43.5156C84.6328 49.1406 83.3047 53.6094 80.6484 56.9219C78.0234 60.2031 74.5078 61.8438 70.1016 61.8438C65.6641 61.8438 62.1172 60.1875 59.4609 56.875C56.8047 53.5312 55.4766 49.0625 55.4766 43.4688ZM59.3203 43.4688C59.3203 48.0938 60.2891 51.7812 62.2266 54.5312C64.1641 57.25 66.7891 58.6094 70.1016 58.6094C73.3516 58.6094 75.9453 57.2656 77.8828 54.5781C79.8203 51.8906 80.7891 48.2031 80.7891 43.5156C80.7891 38.8906 79.8516 35.1875 77.9766 32.4062C76.1016 29.625 73.4766 28.2344 70.1016 28.2344C66.7891 28.2344 64.1641 29.6094 62.2266 32.3594C60.2891 35.1094 59.3203 38.8125 59.3203 43.4688ZM91.9453 61V25.8906H101.414C106.477 25.8906 110.461 27.3906 113.367 30.3906C116.273 33.3594 117.727 37.7188 117.727 43.4688C117.727 48.9375 116.32 53.2344 113.508 56.3594C110.695 59.4531 106.633 61 101.32 61H91.9453ZM95.6953 57.8125H100.758C104.82 57.8125 108.023 56.6719 110.367 54.3906C112.711 52.0781 113.883 48.4375 113.883 43.4688C113.883 38.4375 112.711 34.7812 110.367 32.5C108.023 30.2188 104.852 29.0781 100.852 29.0781H95.6953V57.8125ZM124.805 61V25.8906H146.742V29.0781H128.555V41.2656H144.961V44.4062H128.555V57.8125H147.117V61H124.805Z" fill="white"></path></svg>