<svg xmlns="http://www.w3.org/2000/svg" fill="none" viewBox="-4 -4 178 93"><mask id="path-1-inside-1_117_8" fill="white"><rect width="170" height="85" rx="2"></rect></mask><rect width="170" height="85" rx="2" stroke="white" stroke-width="8" mask="url(#path-1-inside-1_117_8)"></rect><path d="M15.9375 61V25.8906H19.6875V61H15.9375ZM29.3906 61V25.8906H34.2656L41.9531 44.7812C42.4531 46.0938 43.125 47.8906 43.9688 50.1719C44.8438 52.4219 45.2969 53.5938 45.3281 53.6875H45.5156C45.7031 53.2188 46.8438 50.25 48.9375 44.7812L56.5781 25.8906H61.5469V61H57.7969V41.1719C57.7969 38.6406 57.9531 35.0938 58.2656 30.5312H58.0781L56.2969 35.2188L47.1094 58.375H43.8281L34.6406 35.2188L32.7656 30.5312H32.5781C32.9531 35.5625 33.1406 39.1094 33.1406 41.1719V61H29.3906ZM75 47.875H88.2188L84.0938 36.0625C83.8438 35.3438 83.4375 34.2031 82.875 32.6406C82.3438 31.0469 81.9688 29.9375 81.75 29.3125H81.4688C80.1562 33.1562 79.3906 35.4062 79.1719 36.0625L75 47.875ZM66.1875 61L79.3125 25.8906H83.9062L97.0312 61H92.9062L89.3438 50.875H73.875L70.3125 61H66.1875ZM99.2812 43.4688C99.2812 38.0312 100.641 33.6094 103.359 30.2031C106.109 26.7656 109.844 25.0469 114.562 25.0469C116.156 25.0469 117.641 25.2969 119.016 25.7969C120.391 26.2656 121.531 26.9062 122.438 27.7188C123.375 28.5312 124.141 29.3281 124.734 30.1094C125.359 30.8594 125.875 31.6562 126.281 32.5L123.094 33.625C120.875 30.0312 118.031 28.2344 114.562 28.2344C110.969 28.2344 108.156 29.6406 106.125 32.4531C104.125 35.2344 103.125 38.9062 103.125 43.4688C103.125 48.2188 104.156 51.9375 106.219 54.625C108.281 57.2812 111 58.6094 114.375 58.6094C117.438 58.6094 119.797 57.6094 121.453 55.6094C123.109 53.6094 123.938 51.25 123.938 48.5312V45.25H114V42.0625H127.594V61H124.875L124.594 55.8438C122.75 59.8438 119.312 61.8438 114.281 61.8438C109.812 61.8438 106.188 60.2031 103.406 56.9219C100.656 53.6406 99.2812 49.1562 99.2812 43.4688ZM135.75 61V25.8906H157.688V29.0781H139.5V41.2656H155.906V44.4062H139.5V57.8125H158.062V61H135.75Z" fill="white"></path></svg>