<svg xmlns="http://www.w3.org/2000/svg" fill="none" viewBox="-4 -4 178 93"><mask id="path-1-inside-1_117_4" fill="white"><rect width="170" height="85" rx="2"></rect></mask><rect width="170" height="85" rx="2" stroke="white" stroke-width="8" mask="url(#path-1-inside-1_117_4)"></rect><path d="M30.6953 29.0781V25.8906H55.8203V29.0781H45.1328V61H41.3828V29.0781H30.6953ZM61.1641 61V25.8906H83.1016V29.0781H64.9141V41.2656H81.3203V44.4062H64.9141V57.8125H83.4766V61H61.1641ZM85.2578 61L96.7891 42.9531L85.8203 25.8906H90.5078L95.6641 34.375C96.1016 35.0938 96.7266 36.1562 97.5391 37.5625C98.3828 38.9688 98.8828 39.8125 99.0391 40.0938H99.2266C99.6328 39.375 100.227 38.375 101.008 37.0938C101.82 35.7812 102.383 34.875 102.695 34.375L107.852 25.8906H112.539L101.477 42.9531L113.102 61H108.508L102.977 52.1875C102.539 51.4688 101.867 50.3594 100.961 48.8594C100.055 47.3281 99.4766 46.3594 99.2266 45.9531H99.0391C97.7578 48.1719 96.5234 50.25 95.3359 52.1875L89.8516 61H85.2578ZM114.273 29.0781V25.8906H139.398V29.0781H128.711V61H124.961V29.0781H114.273Z" fill="white"></path></svg>